<?xml version="1.0" encoding="utf-8"?>
<!-- Generator: Adobe Illustrator 26.1.0, SVG Export Plug-In . SVG Version: 6.00 Build 0)  -->
<svg version="1.1" id="Capa_1" xmlns="http://www.w3.org/2000/svg" xmlns:xlink="http://www.w3.org/1999/xlink" x="0px" y="0px"
	 viewBox="0 0 719.5 130" style="enable-background:new 0 0 719.5 130;" xml:space="preserve">
<style type="text/css">
	.st0{fill:#D72432;}
	.st1{fill:#023D59;}
</style>
<g id="Burger">
	<path d="M110.1,40.3H15c-2.9,0-5.3-2.4-5.3-5.3v-2.2c0-2.9,2.4-5.3,5.3-5.3h95.1c2.9,0,5.3,2.4,5.3,5.3V35
		C115.4,37.9,113,40.3,110.1,40.3z"/>
	<path d="M110.1,74.3H15c-2.9,0-5.3-2.4-5.3-5.3v-2.2c0-2.9,2.4-5.3,5.3-5.3h95.1c2.9,0,5.3,2.4,5.3,5.3V69
		C115.4,71.9,113,74.3,110.1,74.3z"/>
	<path d="M109.8,108.1h-95c-2.9,0-5.3-2.4-5.3-5.3v-2.2c0-2.9,2.4-5.3,5.3-5.3h95.1c2.9,0,5.3,2.4,5.3,5.3v2.2
		C115.2,105.7,112.8,108.1,109.8,108.1z"/>
</g>
<g id="Diseño">
	<rect x="144.3" y="13.8" class="st0" width="17.6" height="107.1"/>
	<path class="st0" d="M213.5,121c-22.9,0-41.5-18.6-41.5-41.6V13.5h17.1v65.9c0,13.5,10.9,24.4,24.4,24.4s24.4-10.9,24.4-24.4V13.8
		H255v65.7C255,102.4,236.4,121,213.5,121"/>
	<path class="st1" d="M281.5,13.8h-16v52H280c9,0,15.8-2.3,20.6-6.8s7.1-11.1,7.1-19.7c0-8.1-2.3-14.4-6.9-18.8
		C296.2,16,289.8,13.8,281.5,13.8 M280,58.6h-6V20.9h7.4c11.6,0,17.4,6.2,17.5,18.7C298.8,52.3,292.6,58.6,280,58.6"/>
	<rect x="318" y="26.5" class="st1" width="8.4" height="39.3"/>
	<path class="st1" d="M322.3,11.4c-1.3-0.1-2.5,0.4-3.5,1.2c-0.9,0.9-1.3,2.2-1.2,3.4c-0.1,1.2,0.4,2.5,1.2,3.4
		c1,0.9,2.2,1.3,3.5,1.2c1.3,0.1,2.5-0.4,3.4-1.2c0.8-0.9,1.3-2.1,1.2-3.4c0.1-1.3-0.4-2.5-1.2-3.5
		C324.7,11.7,323.5,11.3,322.3,11.4"/>
	<path class="st1" d="M355.1,26c-1.2-0.2-2.3-0.2-3.5-0.2c-5,0-8.8,1.2-11.5,3.5s-4,5.7-4,9.9c-0.1,2.5,0.6,4.9,1.9,7
		c1.2,1.9,2.9,3.4,5,4.3c-1.4,0.8-2.6,1.8-3.7,3c-1.6,2-1.6,4.9-0.2,7c0.7,1,1.6,1.8,2.8,2.3c-2.4,0.5-4.7,1.7-6.4,3.4
		c-1.5,1.7-2.3,3.8-2.3,6.1c-0.1,3.3,1.5,6.3,4.2,8.1c2.8,1.9,6.9,2.8,12.3,2.8c6.9,0,12.3-1.2,15.9-3.6c3.6-2.2,5.7-6.1,5.5-10.3
		c0-3.5-1.1-6.2-3.4-8s-5.5-2.8-9.9-2.8h-6.9c-1.6,0.1-3.2-0.1-4.6-0.7c-0.8-0.4-1.3-1.1-1.2-2c0-1.5,0.9-2.8,2.7-3.9
		c1.1,0.2,2.3,0.3,3.4,0.3c4.9,0,8.8-1.2,11.5-3.5c2.8-2.4,4.4-5.9,4.2-9.6c0-1.3-0.2-2.6-0.6-3.8c-0.3-1.1-0.9-2.1-1.5-3.1l6.7-1.2
		v-4.6h-13.7C357,26.2,356.1,26.1,355.1,26 M348.4,65.7h6.3c3.3,0,5.6,0.3,6.8,1.1c1.2,0.8,2,2.2,1.8,3.6c0,2.2-1.1,3.9-3.3,5.2
		c-2.2,1.3-5.6,2-10.2,2c-2.4,0.1-4.7-0.4-6.9-1.4c-1.5-0.8-2.5-2.4-2.4-4.2c-0.1-1.8,0.7-3.5,2.1-4.6
		C344.4,66.2,346.4,65.6,348.4,65.7 M351.6,46.9c-2,0.1-4-0.6-5.5-2c-1.4-1.6-2-3.6-1.9-5.7c0-2.6,0.6-4.6,1.9-6
		c1.4-1.5,3.4-2.2,5.5-2.1c2-0.2,4,0.6,5.5,2.1c1.3,1.7,1.9,3.8,1.8,5.9C358.8,44.3,356.4,46.9,351.6,46.9"/>
	<path class="st1" d="M383,11.4c-1.3-0.1-2.5,0.4-3.5,1.2c-0.9,0.9-1.3,2.2-1.2,3.4c-0.1,1.2,0.4,2.5,1.2,3.4c1,0.9,2.2,1.3,3.5,1.2
		c1.3,0.1,2.5-0.4,3.4-1.2c0.9-0.9,1.3-2.1,1.2-3.4c0.1-1.3-0.4-2.5-1.2-3.5C385.5,11.7,384.3,11.3,383,11.4"/>
	<rect x="378.8" y="26.5" class="st1" width="8.4" height="39.3"/>
	<path class="st1" d="M409.8,58.3c-1.1-1.2-1.7-2.8-1.5-4.5v-21h11.2v-6.3h-11.2v-8.7h-5.2l-2.8,8.3l-5.8,3.1v3.7h5.4V54
		c0,8.3,4,12.5,11.9,12.5c1.5,0,3-0.1,4.5-0.4c1.2-0.2,2.4-0.5,3.6-1v-6.3c-2,0.6-4,1-6.1,1C412.3,59.9,410.8,59.4,409.8,58.3"/>
	<path class="st1" d="M454.5,29c-2.6-2.2-6.3-3.3-11.3-3.3c-2.4,0-4.8,0.3-7.2,0.9c-2.4,0.5-4.8,1.4-7,2.5l2.7,6
		c1.7-0.8,3.5-1.5,5.3-2.1c1.9-0.6,3.8-0.9,5.8-0.9c2.5,0,4.3,0.6,5.5,1.9c1.2,1.2,1.8,3.1,1.8,5.6v2.1l-6.8,0.2
		c-6.2,0.2-10.7,1.3-13.8,3.4c-3,2.1-4.5,5.1-4.5,9.2c0,3.8,1.1,6.8,3.3,8.9c2.2,2.1,5.2,3.1,9,3.1c2.5,0.1,5-0.4,7.4-1.3
		c2.3-1.2,4.2-2.8,5.7-4.9h0.3l1.7,5.5h6V39.3C458.3,34.6,457,31.2,454.5,29 M449.9,50.4c0.2,2.7-0.8,5.3-2.7,7.1
		c-2,1.8-4.6,2.7-7.3,2.5c-1.7,0.1-3.4-0.4-4.7-1.4c-1.1-1.1-1.7-2.5-1.6-4.1c-0.1-2.1,0.9-4.2,2.7-5.4c1.8-1.2,4.6-1.8,8.6-2l5-0.2
		V50.4z"/>
	<rect x="470" y="13.8" class="st1" width="8.4" height="52"/>
	<path d="M280.8,89.5c0,1.5,0,3.1,0.1,4.7h-0.1c-0.7-1.2-1.7-2.1-2.9-2.8c-1.2-0.6-2.5-0.8-3.9-0.8c-2.5-0.2-4.9,0.9-6.5,2.8
		c-1.5,1.9-2.2,4.6-2.2,8.2c0,3.4,0.8,6,2.2,7.7c1.7,1.8,4.1,2.8,6.5,2.7c2.7,0.1,5.3-1.2,6.7-3.5h0.1l0.5,3.1h1.2V82.1h-1.9
		L280.8,89.5z M280.8,101.5c0,3.1-0.5,5.3-1.6,6.7c-1.1,1.3-2.8,2-5.1,2c-4.5,0-6.8-2.9-6.8-8.7c0-3,0.6-5.3,1.7-6.9
		c1.2-1.6,3.1-2.5,5.1-2.4c2.4,0,4.1,0.7,5.2,2.1s1.6,3.7,1.6,6.9v0.3H280.8z"/>
	<path d="M297.3,90.5c-2.5-0.1-5,1-6.5,3c-1.7,2.3-2.6,5.1-2.4,7.9c0,3.3,0.8,5.9,2.5,7.7c1.8,1.9,4.4,2.9,7,2.8
		c1.1,0,2.2-0.1,3.3-0.3c1.1-0.2,2.2-0.5,3.2-1v-1.8c-1.1,0.5-2.2,0.8-3.4,1.1c-1,0.2-2.1,0.3-3.1,0.2c-2.1,0.1-4.2-0.7-5.6-2.2
		c-1.3-1.5-2-3.6-2-6.5h14.8V100c0.1-2.5-0.6-4.9-2.1-6.9C301.6,91.4,299.4,90.5,297.3,90.5 M290.4,99.9c0-2.1,0.8-4.1,2.1-5.7
		c1.2-1.3,3-2.1,4.8-2c1.7-0.1,3.3,0.7,4.3,2c1.1,1.6,1.7,3.6,1.5,5.6L290.4,99.9z"/>
	<path d="M328.6,83.7l-11.1,27.8h2.1l3.9-9.8h11.2l3.9,9.8h2.2l-10.9-27.8H328.6z M334.1,100h-9.9l3.9-9.9c0.4-1.1,0.8-2.2,1.1-3.3
		c0.4,1.4,0.8,2.5,1.1,3.3L334.1,100z"/>
	<path d="M353.4,90.5c-3.4,0-5.8,1.1-7.1,3.2h-0.1l-0.4-2.8h-1.6v20.6h1.9v-11.3c0-2.8,0.6-4.8,1.7-6s2.9-1.8,5.4-1.9
		c1.5-0.2,3,0.3,4.1,1.4c0.9,0.9,1.3,2.4,1.3,4.5v13.3h1.9V98.1C360.4,93.1,358.1,90.6,353.4,90.5"/>
	<path d="M369.9,109.1c-0.6-1.1-0.9-2.3-0.8-3.5v-13h6v-1.7h-6V86h-1l-0.9,4.7l-3,0.8v1.1h3v13.3c-0.1,1.6,0.3,3.3,1.3,4.6
		c1.1,1,2.5,1.6,4,1.5c1.1,0,2.1-0.1,3.1-0.5V110c-1,0.2-2.1,0.3-3.1,0.3C371.4,110.4,370.4,109.9,369.9,109.1"/>
	<path d="M381,83.4c-0.8,0-1.2,0.6-1.2,1.8s0.4,1.8,1.2,1.8c0.4,0,0.7-0.2,0.9-0.5c0.2-0.4,0.4-0.9,0.3-1.3c0-0.5-0.1-0.9-0.3-1.3
		C381.7,83.6,381.3,83.4,381,83.4"/>
	<rect x="380" y="90.9" width="1.9" height="20.6"/>
	<path d="M395.7,90.5c-2.5-0.1-5,0.9-6.7,2.8c-1.6,1.9-2.4,4.5-2.4,7.8c0,1.9,0.3,3.9,1.1,5.6c0.7,1.5,1.8,2.9,3.2,3.8
		c1.4,0.9,3.1,1.3,4.8,1.3c2.6,0.1,5-0.9,6.7-2.8c1.6-1.9,2.4-4.5,2.4-7.9s-0.8-6-2.4-7.8C400.7,91.5,398.2,90.4,395.7,90.5
		 M400.9,107.8c-2.5,2.9-7,3.2-9.9,0.7c-0.2-0.2-0.5-0.4-0.7-0.7c-1.3-1.9-2-4.3-1.9-6.6c-0.1-2.4,0.5-4.7,1.8-6.6
		c1.3-1.6,3.2-2.4,5.3-2.3c2-0.1,4,0.8,5.3,2.3c1.4,1.9,2,4.3,1.9,6.6C402.9,103.6,402.3,105.9,400.9,107.8"/>
	<path d="M424.7,93.8h-0.1c-1.5-2.2-4-3.5-6.7-3.3c-2.5-0.1-4.9,0.9-6.4,2.8s-2.3,4.6-2.3,8.1s0.8,6,2.2,7.8
		c1.6,1.8,3.9,2.8,6.3,2.7c2.8,0.2,5.5-1.2,7-3.6h0.1c-0.1,1.6-0.1,3.2-0.1,4.7v7.8h1.9V90.9H425L424.7,93.8z M424.8,101.2
		c0,3.2-0.5,5.6-1.6,6.9c-1.1,1.4-2.9,2.1-5.4,2.1c-1.9,0.1-3.7-0.7-4.9-2.2c-1.1-1.5-1.7-3.7-1.7-6.5s0.6-5.3,1.7-6.9
		c1.2-1.6,3.1-2.5,5.1-2.3c2.4,0,4.1,0.7,5.1,2.1s1.6,3.6,1.6,6.7L424.8,101.2L424.8,101.2z"/>
	<path d="M447.7,102.3c0,2.8-0.6,4.8-1.7,6s-3,1.9-5.4,1.9c-1.5,0.1-3-0.4-4.1-1.4c-0.9-0.9-1.3-2.4-1.3-4.5V90.9h-1.9v13.4
		c0,5,2.3,7.5,7,7.5c3.4,0,5.8-1.1,7.1-3.2h0.1l0.3,2.8h1.6V90.9h-1.9L447.7,102.3z"/>
	<path d="M457.3,83.4c-0.8,0-1.2,0.6-1.2,1.8s0.4,1.8,1.2,1.8c0.4,0,0.7-0.2,0.9-0.5c0.2-0.4,0.4-0.9,0.3-1.3c0-0.5-0.1-0.9-0.3-1.3
		C458.1,83.6,457.7,83.4,457.3,83.4"/>
	<rect x="456.4" y="90.9" width="1.9" height="20.6"/>
	<path d="M476.3,92.3c-1.4-1.3-3.2-1.9-5.1-1.8c-2.3,0-4.6,0.6-6.7,1.6l0.7,1.6c1.8-1,3.8-1.5,5.9-1.6c1.4-0.1,2.9,0.4,3.9,1.5
		c0.9,1.3,1.3,2.9,1.2,4.4v1.4l-3.9,0.1c-3.2,0.1-5.6,0.6-7.3,1.8c-1.6,1-2.6,2.8-2.5,4.7c-0.1,1.6,0.5,3.2,1.7,4.3
		c1.3,1.1,3,1.7,4.7,1.6c1.3,0,2.7-0.3,3.9-0.8c1.3-0.7,2.4-1.6,3.2-2.8h0.2l0.5,3.3h1.4V97.8C478,95.3,477.5,93.5,476.3,92.3
		 M476.2,103.1c0.3,3.6-2.4,6.8-6,7.1c-0.4,0-0.8,0-1.1,0c-1.2,0.1-2.4-0.3-3.3-1.1c-0.8-0.8-1.2-1.9-1.2-3
		c-0.1-1.4,0.6-2.8,1.8-3.6c1.2-0.8,3.3-1.2,6.2-1.3l3.6-0.2V103.1z"/>
	<path d="M515.3,13.9h3.4v15.7h-3.4V13.9z"/>
	<path d="M523.4,13.9h3.4l7.6,10.2V13.9h3.4v15.7h-3.4l-7.6-10.2v10.2h-3.4V13.9z"/>
	<path d="M541.3,27.3l1.9-2.3c1.4,1.3,3.3,2,5.2,2.1c1.7,0,2.6-0.8,2.6-1.8s-0.9-1.5-3.3-2c-3.3-0.8-5.7-1.7-5.7-4.7
		s2.4-4.9,5.8-4.9c2.3-0.1,4.4,0.7,6.2,2.2l-1.7,2.4c-1.3-1.1-2.8-1.7-4.5-1.7c-1.4,0-2.3,0.8-2.3,1.7c0,1.1,0.9,1.5,3.4,2.1
		c3.4,0.8,5.6,1.8,5.6,4.7s-2.3,5-6.1,5C545.7,30,543.2,29,541.3,27.3z"/>
	<path d="M562.3,17h-4.9v-3h13.2v3h-4.9v12.6h-3.4L562.3,17L562.3,17z"/>
	<path d="M574.3,13.9h3.4v15.7h-3.4V13.9z"/>
	<path d="M586.3,17h-4.9v-3h13.1v3h-4.9v12.6h-3.4V17H586.3z"/>
	<path d="M598.2,22.8v-8.9h3.4v8.8c0,2.4,1.6,4.1,3.8,4.1s3.7-1.7,3.7-4.1v-8.8h3.4v8.9c-0.1,3.9-3.5,7-7.4,6.9
		C601.3,29.6,598.3,26.6,598.2,22.8z"/>
	<path d="M616.3,21.8c0.1-4.5,3.8-8.1,8.4-8.1c2.3,0,4.5,1,6.1,2.6l-2.5,2.2c-0.9-1.1-2.2-1.7-3.7-1.8c-2.8,0.1-5,2.5-4.8,5.3
		c0.1,2.6,2.2,4.7,4.8,4.8c1.4,0,2.8-0.7,3.7-1.8l2.5,2.2c-1.6,1.7-3.8,2.6-6.1,2.6C620.1,29.9,616.4,26.3,616.3,21.8z"/>
	<path d="M634.3,13.9h3.4v15.7h-3.4V13.9z"/>
	<path d="M641.5,21.8c0.2-4.6,4-8.2,8.7-8.1c4.4,0.2,7.9,3.7,8.1,8.1c-0.2,4.6-4,8.2-8.7,8.1C645.2,29.7,641.7,26.2,641.5,21.8z
		 M654.8,21.8c-0.1-2.7-2.4-4.8-5.1-4.7s-4.8,2.4-4.7,5.1c0.1,2.6,2.3,4.7,4.9,4.7C652.7,26.8,654.8,24.5,654.8,21.8z M651.4,9
		l3,0.6l-3.4,3h-2.3L651.4,9z"/>
	<path d="M662.3,13.9h3.4l7.6,10.2V13.9h3.4v15.7h-3.4l-7.6-10.2v10.2h-3.4V13.9z"/>
	<path d="M515.3,50.3v-8.9h3.4v8.8c0,2.4,1.6,4.1,3.8,4.1s3.7-1.7,3.7-4.1v-8.8h3.4v8.9c-0.1,3.9-3.5,7-7.4,6.9
		C518.4,57.1,515.4,54.1,515.3,50.3L515.3,50.3z"/>
	<path d="M534.1,41.4h3.4l7.6,10.2V41.4h3.4v15.7h-3.4L537.5,47v10.1h-3.4V41.4z"/>
	<path d="M553.1,41.4h3.4v15.7h-3.4V41.4z"/>
	<path d="M576.4,41.4L570,57.1h-3.8l-6.4-15.7h3.8l4.5,11.1l4.5-11.1H576.4z"/>
	<path d="M583,44.5v3.1h7.9v3H583v3.5h8.7v3h-12.1V41.4h12.1v3L583,44.5L583,44.5z"/>
	<path d="M605.1,57.1l-3.6-5.1H599v5.1h-3.4V41.4h7.1c3.4,0,5.9,2.2,5.9,5.3c0,2.2-1.4,4.2-3.6,4.9l3.9,5.5
		C608.9,57.1,605.1,57.1,605.1,57.1z M599,48.9h3.3c1.7,0,2.8-0.9,2.8-2.2s-1.1-2.2-2.8-2.2H599V48.9z"/>
	<path d="M611.6,54.8l1.9-2.3c1.4,1.3,3.3,2,5.2,2.1c1.7,0,2.6-0.8,2.6-1.8s-0.9-1.5-3.3-2c-3.3-0.8-5.7-1.7-5.7-4.8
		s2.4-4.9,5.8-4.9c2.3-0.1,4.5,0.7,6.2,2.2l-1.8,2.4c-1.3-1.1-2.9-1.7-4.5-1.7c-1.4,0-2.3,0.8-2.3,1.7c0,1.2,0.9,1.5,3.4,2.1
		c3.4,0.8,5.6,1.8,5.6,4.7s-2.3,5-6.1,5C616,57.5,613.5,56.5,611.6,54.8z"/>
	<path d="M628.5,41.4h3.4v15.7h-3.4V41.4z"/>
	<path d="M640.5,44.5h-4.9v-3h13.2v3h-4.9v12.7h-3.4V44.5z"/>
	<path d="M661.8,54.7h-7l-1,2.5H650l6.4-15.7h3.8l6.4,15.7h-3.8L661.8,54.7z M660.6,51.8l-2.4-5.8l-2.3,5.8H660.6z"/>
	<path d="M679.3,57.1l-3.6-5.1h-2.5v5.1h-3.4V41.4h7.1c3.4,0,5.9,2.2,5.9,5.3c0,2.2-1.4,4.2-3.6,4.9l3.9,5.5
		C683.1,57.1,679.3,57.1,679.3,57.1z M673.2,48.9h3.3c1.7,0,2.8-0.9,2.8-2.2s-1.2-2.2-2.8-2.2h-3.3V48.9z"/>
	<path d="M686.8,41.4h3.4v15.7h-3.4V41.4z"/>
	<path d="M705.3,54.7h-7l-1,2.5h-3.8l6.4-15.7h3.8l6.4,15.7h-3.8L705.3,54.7z M704.1,51.8l-2.3-5.8l-2.3,5.8H704.1z"/>
	<path d="M515.4,68.9h5.6c5.3,0,9.1,3.3,9.1,7.9s-3.8,7.9-9.1,7.9h-5.6L515.4,68.9L515.4,68.9z M521.5,81.6c2.6,0.2,4.9-1.8,5.1-4.4
		c0-0.1,0-0.2,0-0.4c0-2.8-2.1-4.8-5.1-4.8h-2.7v9.6C518.8,81.6,521.5,81.6,521.5,81.6z"/>
	<path d="M534.1,68.9h3.4v15.7h-3.4V68.9z"/>
	<path d="M549.3,75.8h7v6.5c-1.7,1.7-4,2.6-6.4,2.6c-4.5,0.2-8.3-3.4-8.4-7.9c-0.2-4.5,3.4-8.3,7.9-8.4c0.2,0,0.4,0,0.6,0
		c2.4,0,4.7,0.9,6.4,2.6l-2.5,2.2c-1-1.1-2.4-1.7-3.9-1.8c-2.8,0.1-5,2.5-4.8,5.3c0.1,2.6,2.2,4.7,4.8,4.8c1.1,0,2.2-0.4,3.1-1v-2.4
		h-3.7L549.3,75.8L549.3,75.8z"/>
	<path d="M560.5,68.9h3.4v15.7h-3.4V68.9z"/>
	<path d="M572.5,71.9h-4.9v-3h13.2v3h-4.9v12.7h-3.4V71.9z"/>
	<path d="M593.8,82.2h-7l-1,2.5H582l6.4-15.7h3.8l6.4,15.7h-3.8L593.8,82.2z M592.6,79.3l-2.4-5.8l-2.3,5.8H592.6z"/>
	<path d="M612.9,81.6v3h-11.2V68.9h3.4v12.7H612.9z"/>
	<path d="M515.4,96.4h5.6c5.3,0,9.1,3.2,9.1,7.8s-3.8,7.9-9.1,7.9h-5.6L515.4,96.4L515.4,96.4z M521.5,109.1
		c2.6,0.2,4.9-1.8,5.1-4.4c0-0.1,0-0.3,0-0.4c0-2.8-2.1-4.8-5.1-4.8h-2.7v9.6C518.8,109.1,521.5,109.1,521.5,109.1z"/>
	<path d="M537.5,99.4v3.1h7.9v3h-7.9v3.5h8.8v3h-12.1V96.4h12.1v3H537.5z"/>
	<path d="M568.5,109.7h-7l-1,2.5h-3.8l6.4-15.7h3.8l6.4,15.7h-3.8L568.5,109.7z M567.3,106.8L565,101l-2.3,5.8H567.3z"/>
	<path d="M576.7,96.4h3.4l7.6,10.2V96.4h3.4v15.7h-3.4L580,102v10.2h-3.4V96.4H576.7z"/>
	<path d="M599.7,99.4h-4.9v-3H608v3h-4.9v12.7h-3.4L599.7,99.4L599.7,99.4z"/>
	<path d="M611.7,96.4h3.4v15.7h-3.4V96.4z"/>
	<path d="M619,104.3c-0.1-4.6,3.5-8.4,8.2-8.6c4.6-0.1,8.4,3.5,8.6,8.2c0.1,4.6-3.5,8.4-8.2,8.6c-0.1,0-0.1,0-0.2,0
		C622.8,112.4,619.1,108.8,619,104.3z M632.2,104.3c-0.1-2.7-2.4-4.8-5.1-4.7s-4.8,2.4-4.7,5.1c0.1,2.6,2.3,4.7,4.9,4.7
		C630.1,109.3,632.3,107,632.2,104.3L632.2,104.3z"/>
	<path d="M654.2,108.9l1.5,1.3l-1.7,2l-1.6-1.4c-3.6,2.6-8.7,1.8-11.3-1.8s-1.8-8.7,1.8-11.3c3.6-2.6,8.7-1.8,11.3,1.8
		c1,1.4,1.5,3.1,1.5,4.8C655.7,105.9,655.1,107.5,654.2,108.9z M649.8,108.6L648,107l1.7-2l1.9,1.6c0.4-0.7,0.6-1.5,0.6-2.4
		c-0.1-2.7-2.4-4.8-5.1-4.7s-4.8,2.4-4.7,5.1c0.1,2.6,2.3,4.7,4.9,4.7C648.2,109.4,649.1,109.1,649.8,108.6z"/>
	<path d="M659.5,105.3v-8.9h3.4v8.8c0,2.4,1.6,4.2,3.8,4.2s3.7-1.7,3.7-4.2v-8.8h3.4v8.9c-0.1,3.9-3.5,7-7.4,6.9
		C662.7,112.1,659.7,109.1,659.5,105.3z"/>
	<path d="M678.3,96.4h3.4v15.7h-3.4V96.4z"/>
	<path d="M696.7,109.7h-7l-1,2.5h-3.8l6.4-15.7h3.8l6.4,15.7h-3.8L696.7,109.7z M695.6,106.8l-2.3-5.8l-2.3,5.8H695.6z"/>
</g>
</svg>
